<svg xmlns="http://www.w3.org/2000/svg" xmlns:xlink="http://www.w3.org/1999/xlink" version="1.1" x="0px" y="0px" viewBox="0 0 270 337.5" fill="#d2543e" style="enable-background:new 0 0 270 270;" xml:space="preserve"><g><path d="M140.7251,31.8818c9.14478,2.09131,11.73572-11.66895,4.03662-11.37402c-1.59357,0.06104-8.09845,2.32861-5.43964,4.83691   c1.07001,1.00879,0.83649-1.49219,2.85266-2.44727c1.0257-0.48584,2.63293-0.87402,3.72198-0.36963   c3.3728,1.56201,0.33258,6.83447-2.02966,7.70605c-2.69348,0.99365-6.47113-0.88721-6.74634-3.82275   c-0.34558-3.68701,1.59888-5.76953,2.34332-5.80518c0.04681-0.00195,0.04236-0.06689,0.00232-0.07715   c-1.3642-0.35742-1.95471-0.64795-2.91364,0.74854C134.35663,24.47604,134.76434,30.51901,140.7251,31.8818z"/><path d="M55.32764,256.94284c22.00824,9.88721,45.66779,7.72266,69.00153,6.93848   c30.62182-1.0293,79.34521,5.54541,96.68517-11.33496c12.3266-12,6.9408-28.09766,14.72266-150.62988   c1.7674-27.82764,2.15906-56.97509-24.96606-62.87207c-8.94928-1.94531-27.56659-0.93018-41.89343-0.1792   c0.99872-4.3335-0.68066-9.03467-3.19177-11.21192c-1.12396-0.97412-2.71442-1.15674-3.79913-2.04346   c-4.02026-3.28613-2.10919-8.01855-3.83661-12.27783c-4.862-11.98828-22.46405-9.56104-26.95856,1.34717   c-1.93372,4.69336-1.81091,10.35156-7.87017,11.54004c-2.79102,0.54736-4.323-0.37207-6.34802,2.37109   c-2.62494,3.55615-1.45142,7.59082-0.87482,11.52637c-13.90283,0.73584-27.8645-2.99854-41.69922-0.27441   c-10.43658,2.05518-20.26776,2.97949-27.19244,12.02148c-6.8739,8.97607-7.85321,20.44238-7.75903,31.36914   C40.33729,198.13913,17.90259,240.13083,55.32764,256.94284z M117.27735,51.71432c6.10596-6.85791-0.50928-16.7832,1.28717-19.8999   c0.63104-1.09521,3.79883-2.32617,4.8042-2.50928c0.30719-0.05615,0.71619,0.2002,1.05707,0.13086   c11.72582-2.37988,5.77697-16.5293,17.14855-19.24707c7.48993-1.79004,12.34534,2.63574,12.92932,9.84131   c0.73273,9.04004,4.07361,7.66406,7.39587,9.50098c4.89795,2.70752,4.64941,6.11768,3.6095,9.77588   c-0.6524,0.48926-0.89124,1.44385-0.6864,2.23291c-0.75421,2.38428-1.47528,4.83252-1.03564,7.22754   c1.56287,8.51416,12.97681,1.85889,22.42126,7.88623c4.57684,2.9209,9.1236,9.5791,9.44446,15.40429   c-3.56378-0.93604-7.32391-0.19775-11.04926-0.06738c-0.36041,0.0127-33.17194,0.62793-47.83771-0.54492   c-29.55315-2.3623-31.78039-0.11572-44.87188,0.17188c-2.85028,0.06299-5.77136-0.1958-8.62115-0.05469   c-2.48145-5.75586,1.91699-11.46533,7.31104-13.20605C100.64375,55.11032,111.0525,58.70553,117.27735,51.71432z    M42.23151,142.02927c0.94897-12.97949,1.71948-25.9795,1.82147-38.99708c0.10541-13.44922-2.42554-28.5542,2.61853-41.38281   c5.86652-14.91992,15.82666-15.62549,30.79913-17.76709c12.87634-1.84229,25.82617,1.24219,38.76642-0.2793   c-0.55432,12.21387-16.7265,5.41016-28.3504,11.32129c-6.0426,3.07275-9.69843,10.96435-6.41724,17.10156   c-0.19482,0.31641-0.18768,0.75439,0.15503,1.00879c2.75592,2.04688,6.396,1.47607,9.66766,1.61182   c10.13281,0.42188,18.68634-0.79883,29.11859-0.76465c11.02996,0.03613,9.01598,2.06348,46.79931,2.08643   c9.86127,0.00586,20.12738,0.95605,29.91974-0.3335c1.32416-0.17432,1.79816-1.8291,0.8385-2.63379   c0.9682-5.87646-3.33643-14.13281-7.92883-17.18115c-2.96112-1.96533-5.79767-3.59375-9.32611-4.27246   c-8.25342-1.58838-16.88678,1.94727-13.12683-8.75684c32.5213,0.24805,56.94916-6.80859,62.63477,23.18603   c3.83618,20.23535-0.90527,35.32715-4.73083,143.17334c-0.85876,24.20459,1.66138,40.68066-21.58362,47.37012   c-19.63867,5.65186-41.46948,3.62061-61.66022,3.83496c-24.26855,0.25732-48.8883,4.38721-72.80993-1.4585   c-9.53412-2.33008-20.19647-5.82227-26.17682-14.13916C34.72309,232.88571,36.70856,217.57126,42.23151,142.02927z"/><path d="M129.20551,52.39206c8.57111-1.61865,16.36902-2.78418,24.85608-0.17822c0.42328,0.12988,0.88269-0.42627,0.44275-0.72852   c-7.70551-5.29248-17.33282-2.89111-25.60657-0.30469C128.12817,51.42086,128.41449,52.54147,129.20551,52.39206z"/><path d="M55.47431,239.43747c0.47101,0.75195,16.41693,7.23438,31.73004,8.39502   c24.34515,1.8457,48.19939-4.63184,77.97082-5.50732c13.38977-0.39404,26.34259,1.36963,39.6452,2.15186   c0.34583,0.02051,0.53937-0.18311,0.60242-0.43506c1.85614-0.87988-0.83954,1.07764,10.54663-118.96778   c1.2384-13.05713,3.36676-26.31104,3.4231-39.4292c0.00336-0.78613-0.73834-1.09424-1.25415-0.82129   c-1.95789-4.18018-88.35651,1.31543-120.65771-0.0918c-12.01392-0.52246-42.37408-4.37451-39.66803-1.17432   c0.45203,23.96143-2.409,47.82569-1.48285,71.771C58.98634,224.01218,52.86604,239.46921,55.47431,239.43747z M59.02027,160.9028   c-1.29028-39.1294,3.13092-53.78809-0.09467-77.0171c35.77466,6.6543,107.65215,1.86279,137.00525,2.21289   c4.55811,0.0542,18.98523,1.26318,21.58643,0.21094c-4.10767,19.81494-11.50037,115.8169-14.01862,156.38037   c-10.1051-3.15381-21.35107-3.16309-31.81726-3.12598c-39.65314,0.14063-65.85082,9.9541-95.20415,4.41846   c-6.38751-1.20459-17.8562-5.6001-20.36725-5.57129C60.42573,222.90671,59.54823,176.91306,59.02027,160.9028z"/><path d="M72.35365,129.20309c0.01715,0.49658,0.50354,0.98389,0.99182,1.03564c11.09912,1.17725,21.53314,1.07422,32.2912-2.33106   c0.7937-0.25098,1.1037-0.98633,0.97095-1.76074c-1.34387-7.83984-0.2113-15.30469-1.38434-17.58594   c-3.06824-5.96875-12.54718-3.07666-18.84265-2.89209c-3.91425,0.11475-7.68512-0.23535-11.44507-0.90918   c-0.20795-0.2085-0.56152-0.26123-0.84619-0.15332c-1.48859-0.28613-2.97705-0.61865-4.47345-0.99805   c-1.63025-0.41357-2.3833,1.88623-0.80133,2.4917c1.4845,0.56885,3.00208,1.00537,4.54083,1.33984   C72.4101,114.68404,72.10023,121.85543,72.35365,129.20309z M74.60993,121.89156c0.03247-4.70166,0.14026-9.43506,0.36804-14.14063   c10.32709,1.74365,20.89856-0.8916,23.55219-0.85303c4.30212,0.06348,5.44,3.4917,5.0495,7.2207   c-0.40082,3.8291-0.30585,7.62695,0.13239,11.43457c-7.17914,2.42236-14.651,3.70802-22.25281,3.34376   c-2.31873-0.11133-5.50421,0.39697-6.82147-1.78516C74.01417,126.07906,74.602,123.03756,74.60993,121.89156z"/><path d="M86.80805,120.91354c4.91632-2.14209,10.14166-5.18896,14.42413-8.39551c0.52515-0.39307,0.24677-1.4624-0.49402-1.17822   c-3.67371,1.41016-7.19659,3.39453-10.63135,5.30859c-0.81824,0.45605-4.09949,3.03467-4.93652,2.85303   c-0.77924-0.16943-2.58319-3.01611-3.15808-3.66943c-0.67163-0.76318-1.89734,0.11133-1.28333,0.9585   C82.63422,119.42086,83.4585,122.3735,86.80805,120.91354z"/><path d="M141.62054,123.13766c6.30707,1.07178,8.29688-7.18359,14.48315-4.36719c3.7749,1.71826,5.20502,4.35693,9.88391,3.20459   c3.67218-0.90381,5.94586-3.07422,10.06793-3.16602c3.45929-0.07764,6.65283,1.36523,10.09399,1.35303   c0.72931-0.00244,0.97723-1.13232,0.39282-1.50537c-4.29089-2.74121-10.42249-3.34473-15.26886-1.8916   c-2.68677,0.80566-5.51843,2.87646-8.43549,2.43848c-3.69171-0.55518-7.51843-6.39014-12.6933-3.44434   c-3.74896,2.13379-6.05359,10.21338-15.49371-1.2085c-0.91541-1.10742-2.69843,0.07129-1.86121,1.29199   C134.99695,119.061,137.50812,122.43844,141.62054,123.13766z"/><path d="M73.77381,150.41745c-0.6488-0.0542-0.86316,1.00439-0.20557,1.14404c5.72821,1.21777,11.40216,1.16406,17.22839,1.05029   c5.5047-0.10791,10.81268,0.70654,16.26715,0.97119c-1.15338,7.40186-0.46906,15.09229-1.41608,22.56396   c-0.60126,4.74365-5.30341,3.73926-8.85291,4.00879c-10.42657,0.79248-17.13641,4.20605-22.22705,2.82178   c-5.51172-1.49951,2.0365-15.26465-1.69586-28.60596c-0.22534-0.80566-1.40662-0.47363-1.24493,0.33447   c1.93555,9.66699-1.90955,19.2915-0.79321,29.01953c0.06677,0.58203,0.42639,0.98535,1.03229,1.02393   c10.40094,0.66406,19.66797-2.19043,27.53406-1.96094c1.83856,0.05371,4.44507,0.76074,6.25549-0.13232   c3.14923-1.55371,2.80011-6.39551,2.96271-9.24902c0.36786-6.4541,0.89172-13.51709-0.69635-19.84375   c0.62537-0.20313,0.81232-1.0376,0.12054-1.43311C99.9911,147.52829,86.20686,151.45505,73.77381,150.41745z"/><path d="M89.04359,170.8447c2.40924-0.49854,5.29785-3.1958,7.27271-4.50244c3.30133-2.18408,6.59875-4.35059,9.60822-6.93164   c0.80536-0.69043-0.11682-2.0127-1.05475-1.52979c-4.21582,2.16943-8.078,4.92041-11.99066,7.5835   c-1.1618,0.79053-3.62415,3.15381-5.01361,3.00244c-1.27869-0.13916-4.96191-4.93213-6.0119-5.9585   c-0.66107-0.64648-1.7605,0.45313-1.15051,1.15039C82.63435,165.86667,85.60407,171.55563,89.04359,170.8447z"/><path d="M165.02545,163.13376c-2.15094-1.03564-3.8645-2.55713-5.72656-0.4751c-3.12579,3.49561,0.45898,7.64209-8.94421,3.10986   c-2.52411-1.21631-4.70898-3.32568-6.93445-4.99121c-0.76324-0.57129-1.74695,0.43848-1.16162,1.19434   c4.1308,5.33252,11.81024,10.61914,16.02191,7.20605c1.60675-1.30176,1.5249-4.85986,4.10889-4.8335   c1.54327,0.01563,3.60199,2.61572,5.63385,2.79346c2.40521,0.20996,4.87531-0.79736,7.17749-1.32031   c7.77155-1.76611,15.05023-1.72607,22.89789-2.2583c0.76245-0.05176,0.83966-0.98975,0.17395-1.2666   c-4.86682-2.02393-10.41132-1.58154-15.53333-0.87158C177.30505,162.17429,170.08246,165.56882,165.02545,163.13376z"/><path d="M73.75849,202.54343c-0.79706,0.03613-0.83661,1.24707-0.02539,1.25c18.48926,0.07178,32.07471,2.85742,40.75653,0.81689   c0.64734-0.15234,0.65851-1.23096,0.04883-1.44287C107.79346,200.82712,100.26051,201.34909,73.75849,202.54343z"/><path d="M111.02345,236.74704c0.83221-0.03174,1.36621-0.76074,1.38153-1.5415c0.18878-9.62012,2.51788-19.03906,2.70544-28.63281   c0.0191-0.97656-1.40515-1.39893-1.74103-0.38135c-2.91577,8.83545-2.92792,18.44727-3.75568,27.66406   c-12.12091,0.3208-24.30652,0.38379-36.40424-0.49365c-0.06317-4.66895-0.11127-9.32666,0.11688-13.99561   c0.21552-4.41064,1.12518-9.01367,0.5755-13.40137c-0.07355-0.5874-1.0058-1.021-1.28503-0.31055   c-3.30042,8.40137-2.50763,20.00537-2.04657,28.89648c0.03766,0.72656,0.50293,1.3374,1.27429,1.38135   C84.92274,236.68454,97.92304,237.24557,111.02345,236.74704z"/><path d="M106.87476,211.6655c-4.97974,3.04932-9.47327,6.82666-13.97424,10.52832   c-4.84918,3.98926-3.20886,3.20264-14.0899-3.70459c-0.71338-0.45264-1.46112,0.70898-0.80969,1.22998   c3.42108,2.73486,6.92694,5.33594,10.43701,7.95508c0.39124,0.29199,0.97644,0.36523,1.38495,0.05078   c6.15076-4.73584,12.55865-9.3877,17.95331-14.99512C108.33765,212.14597,107.54591,211.25436,106.87476,211.6655z"/><path d="M187.19312,214.34421c-11.13013,0.95605-16.09363,6.6748-25.10052,3.36572   c-1.17487-0.43164-2.32129-0.91162-3.6095-0.47266c-2.39502,0.81592-1.36993,2.78516-2.65723,4.20605   c-2.67194,2.94971-12.57788-4.59717-15.69708-5.78857c-0.59998-0.22949-1.09949,0.67236-0.6228,1.08008   c3.47943,2.97803,8.35406,6.87842,12.70215,8.30176c2.98157,0.97607,3.83984,0.17676,5.48859-1.98389   c0.23035-0.30176-0.07208-1.14258,0.1875-1.37598c1.90723-1.71582,7.62439,0.50781,11.94482-0.33057   c5.83838-1.13281,12.3537-2.83447,17.67975-5.52539C188.22418,215.45895,188.11951,214.26462,187.19312,214.34421z"/></g></svg>