<svg xmlns="http://www.w3.org/2000/svg" xmlns:xlink="http://www.w3.org/1999/xlink" version="1.1" x="0px" y="0px" viewBox="0 0 270 337.5" fill="#d2543e" style="enable-background:new 0 0 270 270;" xml:space="preserve"><g><path d="M31.58258,174.63921c12.66199,20.39795,45.83423,54.67969,72.99255,71.43457   c23.37451,14.41991,28.30786,17.66844,50.953,18.66014c16.8927,0.74023,35.73059-6.70215,45.76868-20.69139   c0.22449-0.31299,0.25195-0.66553,0.16016-0.98877c6.31958-7.5498,9.41467-18.75732,8.62756-28.30518   c-0.55164-6.69043-5.07751-11.47607-9.58154-16.05078c-5.0675-5.14648-10.73059-9.74854-17.10461-13.18262   c-9.9397-5.35449-23.54517-8.02686-33.5564-1.27197c-11.55249,7.79541-10.77771,22.01172-14.64417,33.9292   c-5.13086,0.88086-9.8761-2.5-13.94177-5.45752c-6.02563-4.38428-11.56323-9.51465-16.72021-14.88379   c-6.51367-6.78174-13.8385-13.44971-19.14355-21.19238c-3.67261-5.35986-7.87976-10.32422-11.55469-15.68066   c-5.25867-7.66504-4.9187-18.52002-7.55835-17.91357c0.50537-1.27539,1.80933-2.34863,3.46802-3.271   c0.13477-0.01318,0.25146-0.08008,0.33472-0.18457c3.7959-2.0083,9.21289-3.28027,11.38818-4.36035   c20.06152-9.9629,12.38831-33.93555,0.10474-52.48731C74.2016,71.60502,62.89948,60.25834,48.43158,64.35746   C35.2431,68.09428,22.12543,77.72074,15.35931,89.68119C-0.18634,117.16117,16.72479,150.70317,31.58258,174.63921z    M147.29144,192.62358c13.04736-18.7207,44.96729-2.52344,56.875,16.35059c4.81592,7.63379,0.17334,23.57617-3.79395,31.34961   c-1.76331-4.49609-6.42566-8.43115-9.88843-11.18311c-9.45386-7.51318-25.15869-12.72998-35.29565-13.854   c-4.92371-0.5459-10.44287,0.12842-15.46436,0.80078C143.33209,208.8145,142.40717,199.63139,147.29144,192.62358z    M45.37347,70.36088c8.19189-3.60107,15.32031-2.81543,22.19019,3.0376c5.48633,4.67432,9.83801,10.71045,13.30493,16.99023   c6.47485,11.72754,14.28394,31.16992,0.15796,40.22901c-2.34009,1.50098-8.03162,3.34375-12.14551,5.92627   c-0.47974-1.57422-0.68018-3.46289-0.97363-4.73389c-2.43738-10.55274-4.24976-13.28712-12.81006-25.71192   c-5.41089-7.85352-15.59595-21.33643-26.76636-19.14404c-0.85364,0.16748-0.95166,1.22559-0.20569,1.61133   c11.41297,5.89746,14.84876,6.53662,26.45386,23.98926c11.79041,17.73145,9.10608,21.12159,12.33057,25.40137   c-2.41321,2.01318-3.61475,4.42969-1.86926,7.39014c0.10974,0.18604,0.28357,0.26953,0.46057,0.28369   c-0.19568,14.15479,7.29138,19.1377,15.81189,31.46143c11.23901,16.25684,50.34802,54.38623,55.66309,42.96289   c0.42554-0.24756,1.23315-1.39453,1.50916-1.80127c3.27979,2.0376,7.48511,1.07861,11.20081,1.00488   c8.99268-0.1792,31.51367,6.2207,43.00354,17.44873c2.07629,2.02979,3.76648,4.59619,6.00439,6.44043   c-17.91382,18.19774-38.54041,21.86717-63.66223,15.25975c-7.48352-1.96777-14.54907-7.04002-21.19775-10.9326   c-13.6543-7.99463-26.07007-17.06836-37.61633-27.89941c-26.96228-25.29248-40.67419-39.43066-55.42493-74.94824   c-5.45386-13.13184-9.52307-28.55909-5.604-42.65577C19.38544,86.87553,31.40252,76.50199,45.37347,70.36088z"/><path d="M163.17865,201.18266c4.77881,1.77295,9.68066,3.54004,14.21509,5.89014c4.44348,2.30273,8.30957,6.32031,13.09192,7.83008   c0.56006,0.17676,0.94617-0.48389,0.59875-0.91797c-8.77051-10.9624-16.07544-12.625-27.44189-14.24023   C162.82831,199.62895,162.33026,200.86821,163.17865,201.18266z"/><path d="M56.33417,90.23978c4.97949,3.25586,7.71411,5.26563,13.83618,15.10498c0.45703,0.73438,1.45825,0.12744,1.28845-0.62598   c-1.49768-6.64941-6.81824-16.0752-14.57288-16.24658C55.92645,88.45072,55.52618,89.71146,56.33417,90.23978z"/><path d="M116.33881,231.01616c0.29883-0.02051,0.31641-0.43945,0.01245-0.46826c-4.72107-0.44775-8.85669-3.75195-12.53613-6.49023   c-10.49268-7.81006-22.2074-19.20557-34.36658-35.63477c-5.98486-8.08691-12.22424-16.05322-17.5957-24.56689   c-3.35706-5.32031-9.92834-13.72168-9.17102-20.38379c0.02173-0.19141-0.21704-0.23047-0.3208-0.11084   c-3.99219,4.59131,2.28772,14.16748,4.4978,18.25098C56.2514,178.96684,94.77679,232.51176,116.33881,231.01616z"/><path d="M252.81561,70.50687C234.20587,26.5933,183.93195-4.83394,136.15961,8.1851   c-13.15479,3.58496-26.09985,8.04102-36.5271,17.14209c-9.93506,8.67188-18.44202,21.07813-20.47803,34.29004   c-0.19788,1.28467,1.51758,1.77344,1.9624,0.5249c4.06995-11.42871,9.95105-21.77832,18.81348-30.1875   c8.78149-8.33301,19.75464-12.979,31.22852-16.35107c22.86072-6.71826,45.66235-5.22754,67.17432,5.36182   c39.95496,19.66748,65.36975,64.86865,56.04773,109.27197c-2.58862,12.33057-7.72107,24.19629-15.05884,34.44678   c-6.7915,9.48779-17.85681,22.78564-30.38098,23.44727c-2.20532,0.1167-2.13525,3.93359,0.1062,3.91162   c11.90906-0.11914,21.71802-9.83057,29.03394-18.35498c7.92017-9.22803,13.98755-20.10889,17.82983-31.63867   C263.49969,117.27787,262.16339,92.56547,252.81561,70.50687z"/><path d="M196.43915,177.6519c9.88733-0.16406,17.82275-7.82373,23.97693-14.88281   c6.51331-7.47119,11.57153-16.31348,14.85742-25.65674c7.08057-20.13282,5.89612-42.22413-2.8053-61.67872   C216.37103,39.44291,175.10284,13.96,135.60223,24.8228c-10.97876,3.01904-21.75562,6.8335-30.40942,14.49609   C96.99677,46.5767,89.83026,57.0435,88.34222,68.09037c-0.17358,1.28955,1.48877,1.76563,1.9624,0.5249   c3.54492-9.28466,8.05981-17.64502,15.22949-24.66552c7.2041-7.05469,16.25684-11.03613,25.79932-13.89258   c18.89624-5.65576,37.72144-4.63623,55.57251,4.09277c33.47485,16.36865,54.57849,54.21582,46.87524,91.32666   c-2.10364,10.13477-6.26514,19.90675-12.21143,28.38526c-5.61755,8.00977-14.77954,19.16113-25.23669,19.87891   C194.13275,173.89165,194.19476,177.68901,196.43915,177.6519z"/><path d="M133.21857,112.46781c-2.65051,2.09033-5.33142,4.23828-8.13733,6.15332   c-4.90747-1.14209-10.37903-1.26367-14.57178,1.49707c-6.71045,4.41797,0.89783,11.63526,15.79639,2.00244   c0.97778,0.38184,1.95068,0.80615,2.95508,1.22754c8.40259,3.52637,18.06128,4.96241,26.724,1.55811   c1.54895-0.60889,1.08728-3.26416-0.67444-2.9458c-10.42566,1.88281-17.67188,0.77588-25.84644-2.02686   c14.698-10.79541,30.97607-25.48877,25.87061-42.90088c-1.87695-6.40137-7.79443-11.57129-14.75928-10.50586   c-6.72156,1.02832-12.73975,6.67285-16.84766,11.75537c-0.44751,0.55371,0.45801,1.13428,0.90771,0.61035   c3.29065-3.8335,7.26379-7.12842,11.96655-9.09766c10.2146-4.27783,16.78711,5.22998,16.16187,14.47363   C151.94232,96.41654,142.14081,105.43217,133.21857,112.46781z M113.1922,122.79203   c-0.51672-1.02344-0.15332-1.51172,1.08997-1.46387c1.77417-0.81152,5.31128-0.73438,7.25256-0.49609   C118.73944,122.34916,112.64227,125.29154,113.1922,122.79203z"/><path d="M191.51312,130.74956c3.99878-9.57862,5.13293-20.19434,5.6521-30.4961c0.46606-9.25,0.9126-19.88477-1.92847-28.77539   c-0.47266-1.47949-2.58716-1.26953-2.69434,0.31055c-0.66345,9.78564,0.78467,19.74512,0.21265,29.60303   c-0.00049,0.00684-0.00122,0.01318-0.00146,0.02002c-4.30225,0.64502-8.4436,2.35059-12.76636,3.00244   c-3.39258,0.51172-6.73865,0.60156-10.1438,0.38916c1.94019-4.16992,1.57739-9.49609,1.81799-13.99023   c0.3446-6.43604,0.64636-12.83301,0.3678-19.27539c-0.04419-1.02197-1.5415-0.87891-1.70435,0.02539   c-1.14368,6.34766-1.70483,12.72314-2.24585,19.14697c-0.3916,4.65088-1.46533,9.7998-0.00098,14.28613   c-0.82495,0.65186-0.56494,2.39795,0.8269,2.49316c7.27734,0.49609,17.08899,0.48096,23.67554-3.73096   c-0.70142,8.94141-2.33496,17.76172-3.02209,26.70264C189.46442,131.68413,191.11249,131.70952,191.51312,130.74956z"/></g></svg>