<svg xmlns="http://www.w3.org/2000/svg" xmlns:xlink="http://www.w3.org/1999/xlink" version="1.1" x="0px" y="0px" viewBox="0 0 270 337.5" fill="#d2543e" style="enable-background:new 0 0 270 270;" xml:space="preserve"><g><path d="M50.82704,31.39751c-17.5321-2.28418-36.5636,17.61426-43.27527,36.4292   c-4.65405,13.04639-2.65356,25.46338,2.05469,38.20215c2.94238,7.96143,7.1001,15.4873,12.81543,21.62793   c-1.20483,4.00684-1.28296,8.5498-1.4469,12.604c-0.24011,5.93311-0.51355,11.86523-0.6366,17.80273   c-0.12659,6.10352-0.05908,12.2002-0.13354,18.30322c-0.03662,3.00537-0.51855,6.79541,0.12158,9.93994   c-3.10352-1.13672-7.00732-1.54346-10.30127-1.10645c-0.54907,0.07275-0.86304,0.40088-0.96777,0.78467   c-1.06934-0.73242-0.84204,1.68311-1.90088,8.12695c-0.42017,2.55615-1.4447,5.04785-1.5365,7.63721   c-0.03406,0.96191,1.17883,1.31885,1.724,0.56445c2.79041-3.86133,3.17114-10.37891,2.15015-15.10547   c0.18713,0.14014,0.41443,0.24365,0.70703,0.25146c5.63354,0.14648,8.85962,0.68213,9.89856,0.72119   c0.12,0.15186,0.24768,0.20703,0.41528,0.25146c0.32874,0.38135,0.84875,0.46924,1.27283,0.2915   c2.68799,0.53125,9.16772,0.90039,9.56714,0.91553c-5.85669,3.93408-9.29065,8.84424-10.91113,14.68115   c-1.17651-0.03955-2.32507,0.07471-3.53052,0.08594c-3.70911,0.0332-8.34961-1.40283-10.88476,0.29102   c-1.86108,1.24365,3.81592,3.52979,11.69702,3.36328c0.32153-0.00684,1.10815-0.02148,1.97351-0.11816   c-1.04565,8.00879,1.54956,16.42871,7.27759,22.40674c8.07239,8.42578,24.93884,11.63135,35.15906,5.48047   c9.49341-5.71338,12.72095-17.09912,11.22705-27.56201c3.77478,0.85693,89.18054,4.38721,111.00159,2.91211   c-0.38623,6.54883,1.81775,13.22266,6.30688,18.32666c7.77905,8.84375,24.49744,12.38623,35.16333,7.06934   c10.10437-5.03662,13.88562-16.36719,12.35498-26.91748c2.35632,0.37012,4.87512,0.02246,7.25427,0.02832   c4.32471,0.01172,9.01965,0.85547,13.22475-0.51904c7.34265-2.40039,7.55872-12.67529,4.77197-18.8501   c0.89233-1.73779,0.68835-4.27393,0.65063-6.96729c-0.14978-10.68652,1.22644-26.20605-6.91516-33.21338   c-4.53957-3.90723-10.5536-3.58447-16.04762-4.94482c-14.09399-3.48975-13.83545-30.81885-23.87366-35.77588   c-2.45642-1.21338-5.34534-1.03564-8.00146-1.09082c-16.59143-0.34424-29.02771-2.29199-39.60388-0.83643   c-0.75537-18.22412-0.23303-21.08447-4.67432-23.41943c-4.828-2.5376-11.21436-1.73047-16.45923-2.24561   c-7.83374-0.76904-16.28918-0.94678-24.20752,0.16553c-2.38037-9.94189-6.83154-20.7041-13.41577-28.64551   c-4.76331-5.74463-10.63171-9.4458-16.88843-13.37891C81.56007,32.14214,65.37721,29.80327,50.82704,31.39751z M51.6963,234.89458   c-14.1123,0.66406-27.62793-6.99854-28.48132-22.25244c-0.59326-10.604,10.75134-29.25195,23.37671-22.25537   c0.49719,0.27539,1.11682-0.29395,0.70056-0.77686c-0.26685-0.31006-0.54321-0.5874-0.82422-0.84863   c6.92041,0.97852,18.64502,1.72021,22.43091,16.97852C72.0359,218.38383,66.45485,234.20024,51.6963,234.89458z    M212.69093,234.86235c-12.72949-0.68164-24.69263-8.26953-24.64685-22.25439c0.03467-10.56836,11.69849-25.99561,23.49646-19.9165   c0.48364,0.24902,0.9115-0.4707,0.58081-0.83887c-0.2168-0.24121-0.43884-0.46582-0.66504-0.67676   c3.10498,0.40918,6.22339,0.72803,9.2334,1.73193C240.98586,199.67485,240.19728,236.33549,212.69093,234.86235z    M211.74562,110.93706c7.55615,0.52539,9.5332,8.17627,12.26367,14.14014c2.49316,5.4458,4.3667,11.7666,7.75623,16.72949   c6.14954,9.00342,18.99951,3.74805,25.4247,11.93164c4.59961,5.8584,4.25977,15.49609,4.45361,24.07373   c0.06372,2.81299,1.71387,12.32129-2.81348,12.57666c-0.66858,0.0376-0.98035,0.53906-0.99231,1.05518   c-18.11684,0.59375-16.0851,1.625-20.07875,1.43262c-0.25781-0.0127-0.26196,0.34717-0.02112,0.39014   c4.43323,0.78516,8.97058,0.21973,13.45471,0.32764c2.89233,0.06982,5.89723,0.30469,8.46852-1.04932   c0.78369-0.09033,1.4436-0.25928,1.979-0.50879c0.15625,3.41846,0.65869,7.15771-0.53577,10.22314   c-2.87463,7.37598-14.85194,1.77344-23.46059,4.60156c-3.45532-14.4668-17.69128-21.33789-31.47437-19.50488   c-0.79834,0.10645-1.2804,0.73682-1.34058,1.38232c-3.00562,0.09521-6.16016,1.41406-8.98254,3.27783   c-1.5741-0.81836-6.90857-0.65625-24.00549-0.42871c0.79761-12.29004-0.10181-24.79541-0.59351-37.07715   c-0.64014-15.98975-0.71057-25.0708-1.49951-44.61914C179.06325,111.54106,201.05812,110.19389,211.74562,110.93706z    M192.50929,194.59575c-4.46338,3.98145-7.23291,8.81396-7.99634,15.0332c-19.56995-1.12891-39.16748-1.86816-58.771-2.59961   c-47.21521-1.76025-47.51343-2.08252-52.75574-0.90381c-1.33337-6.43066-4.29993-11.60352-9.54309-15.59961   c25.85962,1.51318,26.85095,3.59082,71.33008,3.71631C156.65309,194.30278,187.7632,195.03471,192.50929,194.59575z    M124.7505,83.98393c7.66528,0.57471,15.44922-0.23193,23.12622,0.62842c4.58643,0.51416,12.63416-0.75244,16.26855,2.57568   c2.75366,2.52148,1.604,10.86816,1.71741,14.43018c1.21741,38.27588,1.38025,76.60498,3.60583,90.00781   c-76.81812,1.3418-82.04236-2.59717-109.92944-3.57275c-5.38379-2.79541-11.77783-3.90674-18.19836-3.11182   c-0.83044,0.10303-1.30945,0.77588-1.3385,1.44678c-1.80957,0.0708-3.67114,0.60742-5.48267,1.45117   c-3.85815-0.96191-8.40381-1.25146-12.32422-0.92578c1.22949-3.52441,0.78516-8.25781,0.91675-11.80713   c0.43799-11.81494,2.57495-44.15283,2.57739-44.25293c16.61035,14.79346,50.45166,22.30322,72.42102,8.20947   c10.05286-6.44873,17.60388-16.40332,22.71069-27.08008C126.15395,100.83403,126.66139,93.26079,124.7505,83.98393z    M59.66676,35.26665c0.16724,0.10059,0.31714-0.08936,0.23755-0.22803c20.79163,1.37109,41.63538,9.40234,52.37622,28.36035   c5.14453,9.08008,9.61865,21.32568,8.86792,31.88721c-0.78491,11.0415-7.54614,22.48926-14.69495,30.67139   c-15.26648,17.47217-37.94275,19.24805-59.02039,12.18896c-9.68018-3.2417-18.60596-8.45361-24.92285-16.61816   c-7.32397-9.46582-12.09936-22.07764-13.8147-33.84521C5.22707,63.88823,28.81715,35.10893,47.73341,32.78813   c-0.2312,0.96436,0.27405,2.15527,1.45679,2.10889c3.29443-0.12939,6.63574-0.09863,9.98145,0.09668   C59.33644,35.08647,59.50258,35.16753,59.66676,35.26665z"/><path d="M202.82619,160.73979c6.90576-0.38721,14.19092,0.83545,20.9873-0.07617c0.62024-0.08301,0.57104-1.00293,0.03442-1.16846   c-10.14844-3.13184-33.37744,0.21191-44.48389,2.64941c0.89355-30.14258,1.28796-30.48486,0.521-35.09863   c1.40308,0.16553,2.81702,0.2959,4.24048,0.39404c-0.11694,0.16406-0.22656,0.33447-0.32446,0.51514   c-0.03577,0.06592,0.07251,0.11475,0.10718,0.04785c0.09619-0.1875,0.21289-0.37354,0.34546-0.55518   c9.32751,0.62988,19.02515-0.03857,28.33508-0.30566c0.30139,5.43652,1.45251,10.84668,2.71741,16.125   c1.16797,4.87354,2.24292,11.02441,5.26917,15.08984c0.28284,0.37988,0.82092,0.09424,0.80237-0.3291   c-0.23499-5.37256-2.96753-10.99365-4.27905-16.23877c-1.16382-4.6543-1.93726-9.3833-2.94092-14.06738   c0.44824-0.24072,0.89636-0.48145,1.34448-0.72217c0.91333-0.49072,1.04834-2.29932-0.29834-2.30615   c-11.78442-0.06006-24.448-0.98584-36.11621,0.70557c-0.83972,0.12158-0.9801,1.42969-0.06201,1.54834   c0.0531,0.00684,0.10693,0.01172,0.16003,0.01855c-1.07776,4.67969-0.66235,5.17969-1.56458,36.15088   C177.54469,165.73735,181.2527,161.94878,202.82619,160.73979z"/><path d="M252.22707,188.71928c1.51294,1.76074,3.70752,2.40137,5.62331,0.95898c0.34875-0.26221,0.15308-0.92432-0.29626-0.92578   c-5.02126-0.01416-4.95619-4.93652-4.45522-8.54248c0.54541-3.92627,1.99402-7.81592,6.60573-7.99316   c0.97083-0.0376,1.47388-1.58936,0.3479-1.82715c-6.56374-1.38428-9.01173,6.12793-9.37379,11.22852   C250.50563,184.05571,250.54543,186.76225,252.22707,188.71928z"/><path d="M153.45802,112.91362c-1.77576,11.90381-2.67065,23.83887-2.7312,35.875   c-0.05518,10.95117-0.7821,23.4292,2.16211,34.05078c0.11292,0.40674,0.78992,0.31738,0.82373-0.0918   c0.84949-10.31396-3.02881-20.25342,0.71558-69.72021C154.47572,112.40044,153.55104,112.29057,153.45802,112.91362z"/><path d="M186.38527,141.96928c2.32275,5.21387,5.75684,10.0708,10.46704,13.38477c0.50732,0.35693,1.13245-0.35303,0.71533-0.81543   c-3.76086-4.16992-7.39685-8.2627-10.38379-13.04541C186.89967,141.03764,186.17287,141.49272,186.38527,141.96928z"/><path d="M203.70045,148.83549c-2.41821-3.33984-5.01099-6.52295-7.60693-9.72559c-0.42798-0.52832-1.22314,0.15527-0.80078,0.68652   c2.54736,3.20313,5.07288,6.3999,7.79443,9.45752C203.39381,149.59819,203.98952,149.23491,203.70045,148.83549z"/><path d="M204.24757,210.17827c-0.01074,0.1543,0.09998,0.24072,0.22681,0.27246c-0.32788,3.53418,1.45093,7.30225,4.55383,9.22314   c4.54138,2.81104,11.20251,1.51807,14.05457-3.07861C230.03078,205.39799,205.21632,196.41264,204.24757,210.17827z    M218.85158,216.85551c-2.78833,2.17236-7.09253,2.0625-9.67603-0.4292c-3.95813-3.81738-1.43384-9.59521-1.72351-10.19873   C213.36513,202.71147,226.1609,211.1602,218.85158,216.85551z"/><path d="M46.8943,203.31108c-3.92139-0.6582-9.55505,1.29639-9.5061,5.82129c-1.88135,0.19092-0.94836,10.56543,8.40112,11.90186   c5.04175,0.7207,11.2998-1.99268,10.81958-7.85205C56.19386,208.11967,51.74525,204.12553,46.8943,203.31108z M38.27296,210.14116   c0.09229-0.09277,0.15002-0.22314,0.1311-0.39111c-0.9231-8.18848,15.07507-5.66016,16.02563,3.06104   C54.95656,217.64409,39.21193,221.37749,38.27296,210.14116z"/><path d="M49.38454,44.12456c0.82715-0.38574,0.40662-1.75195-0.45117-1.37305C31.7339,50.34868,20.29054,67.1895,20.19398,86.10405   c-0.09485,18.59326,11.10754,36.95703,28.82104,43.56201c15.90344,5.93018,35.64258,1.77979,47.49353-10.44189   c22.23804-22.93262,14.68604-54.42432-12.66895-68.09229c0.64258-1.11377-0.17944-1.1748-1.34766-0.65039   c-10.93335-5.10107-23.65002-6.75342-35.61133-5.08789C47.70143,44.95122,48.53224,44.52251,49.38454,44.12456z M47.82668,51.77592   c1.09644,1.51416,2.20361,3.00586,3.32837,4.5c0.73376,0.97412,1.96509-0.25098,1.57788-1.18701   c-1.0658-2.57764-2.71045-5.64502-4.86829-7.80957c11.29395-1.21875,23.2605-0.58154,33.74158,3.70459   c-1.13403,0.78955-2.83911,2.87158-2.58411,4.22461c0.08582,0.45605,0.58948,0.92383,1.08826,0.66309   c0.59839-0.3125,0.84351-0.71484,1.19067-1.2666c0.3855-0.61279,1.30225-1.604,2.13574-2.83057   c13.24341,6.06982,21.89087,17.61914,23.93213,31.01514c-1.08557-0.2998-4.43713,0.06299-6.72119,1.56738   c-0.32056,0.21143-0.16455,0.76465,0.2085,0.80176c1.96167,0.19531,6.20801-0.0293,6.77612-0.2793   c1.36279,13.88135-4.67749,26.19385-14.88965,35.2832c-0.745-1.16455-2.08765-2.04102-3.0697-2.92822   c-1.20667-1.09033-2.2522-2.45996-3.56335-3.41162c-0.68652-0.49854-1.71265,0.29883-1.30627,1.08301   c0.81348,1.56934,2.3468,2.89404,3.61108,4.10986c0.86243,0.82959,1.82275,1.81836,2.95154,2.32861   c-15.96558,13.13916-36.70264,12.43066-51.26367,1.82275c1.54346-1.68652,2.87598-3.59424,4.31128-5.37451   c1.26685-1.57129,2.76514-3.10596,3.65234-4.93213c0.29028-0.59766-0.43738-1.42725-1.06494-1.07861   c-1.9292,1.07129-3.40112,2.91895-4.79321,4.59619c-1.40881,1.69775-2.81274,3.48926-3.84521,5.44922   c-7.59583-6.15088-13.11011-14.86816-15.39221-24.68652c-0.81433-3.50342-1.19421-7.01172-1.18445-10.47217   c0.31799,0.56445,0.05078,0.75342,14.32446-0.56738c1.07568-0.09961,0.86462-1.61963-0.07581-1.78076   c-5.55908-0.95166-13.46594-0.02979-14.22937,1.26758c0.41895-15.72949,8.98279-30.33057,22.54822-38.73584   C44.65834,48.06255,46.91982,50.52348,47.82668,51.77592z"/><path d="M60.73439,96.0479c4.11621,0.82568,8.354-1.61963,9.56506-5.66016c0.76379-2.54834,0.29871-5.18066-1.07007-7.23242   c3.07336-3.49512,6.29163-7.60742,8.23523-11.72705c0.20581-0.43652-0.36621-0.82227-0.72375-0.54688   c-3.4823,2.68311-6.52112,6.89893-8.6427,10.91748c-0.86914-0.84473-1.92932-1.51904-3.15869-1.93262   c-3.68921-1.24023-8.48035-0.04492-9.02246,4.33691c-0.03784,0.30566,0.47217,0.37061,0.53711,0.07227   c0.88428-4.05566,6.1333-3.83057,8.72168-2.2085c2.6366,1.65234,3.90576,4.82227,2.84082,7.78906   c-1.03113,2.87207-4.18164,4.55664-7.16199,3.64697c-3.24768-0.99072-3.82361-3.86865-4.02771-6.78076   c-0.06592-0.94043-1.36877-0.90283-1.69141-0.16895C53.40529,90.49028,56.79176,95.25688,60.73439,96.0479z"/><path d="M71.16164,67.67436c3.55493-1.50391,7.26221-2.58643,11.06946-3.18408c-0.66614,3.47656-0.86145,6.86768-0.37,10.43604   c0.11401,0.82715,1.50244,0.98877,1.54846,0.06201c0.19275-3.88623,0.51038-7.7832,1.3136-11.59521   c0.1377-0.65234-0.44092-1.42285-1.15149-1.32178c-4.60437,0.65674-8.93628,1.94482-13.10144,4.0293   C69.4861,66.59331,70.13625,68.10796,71.16164,67.67436z"/><path d="M71.48109,105.41801c-0.59607-3.08984-2.21313-6.18604-4.07532-8.69678c-0.47046-0.63477-1.69971-0.18848-1.49536,0.63574   c0.73438,2.96436,2.18542,6.20996,4.18823,8.55811C70.52711,106.41753,71.63869,106.2354,71.48109,105.41801z"/><path d="M76.65651,102.98442c-2.28247,6.79395-1.35461,7.58545-1.88416,8.31543c0.05139,0.44434-0.09375,0.49561-0.43542,0.15332   c-0.22412-0.03955-0.44812-0.0791-0.67224-0.11865c-0.83826-0.19775-3.08984-0.53955-5.00525-0.61084   c-0.76685-0.02881-0.83154,1.03027-0.17395,1.2666c1.50586,0.54053,3.06238,0.90332,4.62659,1.22754   c0.90564,0.18799,2.15649,0.68457,2.99414,0.0249c0.79712-0.62793,0.75269-2.00439,0.90942-2.89648   c0.41772-2.37744,0.6051-4.70508,0.58008-7.12549C77.59047,102.71684,76.84938,102.40971,76.65651,102.98442z"/><path d="M149.21632,89.07671c3.71851,1.1377,8.44946,0.34668,11.51416,3.11133c0.29712,0.26807,0.82629-0.05371,0.7467-0.43896   c-0.38123-1.84619-1.74609-2.66113-3.50842-2.98975c-2.74438-0.51172-5.98877-0.56055-8.74609-0.17188   C148.96156,88.62407,148.99513,89.00932,149.21632,89.07671z"/><path d="M247.21791,152.83208c2.25842,0.66162,4.32629,2.48291,5.81116,4.24951c0.18738,0.22314,0.51172-0.021,0.45679-0.26611   c-0.32568-1.45313-0.98877-2.52051-2.20654-3.38232c-1.94556-1.37646-2.93506-1.21777-4.00073-1.25635   C246.88698,152.16264,246.87599,152.73198,247.21791,152.83208z"/></g></svg>