<svg xmlns="http://www.w3.org/2000/svg" xmlns:xlink="http://www.w3.org/1999/xlink" version="1.1" x="0px" y="0px" viewBox="0 0 270 337.5" fill="#d2543e" style="enable-background:new 0 0 270 270;" xml:space="preserve"><g><path d="M252.79924,171.3851c-0.04395-3.45947-0.81799-6.99316-1.63013-10.43604c0.52344,0.17969,1.20996-0.21484,0.94714-0.85791   c-1.22375-2.99463-2.3717-6.69336-8.75232-12.64111c-0.32593-0.30371-0.71484-0.32178-1.05688-0.19043   c-0.18713-0.27539-0.47607-0.47803-0.8772-0.52588c-27.24768-3.25342-55.57593-1.89355-82.89417,0.13184   c3.86218-4.99023,7.65173-10.03711,11.62073-14.84717c22.27197-26.99364,14.3302-28.86816,0.51013-37.12011   c-5.60376-3.3457-10.51453-6.95557-16.51672-9.65332c-4.52051-2.03223-7.64209-4.72949-11.87231-1.61963   c-6.73511,4.95068-7.75476,13.13184-22.63574,37.25488c-1.77563,2.87842-11.18457,18.06835-12.0802,21.35497   c-13.8429-0.23975-43.1886,1.55615-75.00122,0.55176c-0.31604-0.01025-0.52551,0.18555-0.62268,0.43848   c-0.19971-0.29785-0.61255-0.5-0.97217-0.41016c-5.05859,1.26025-9.44946,4.95117-13.18018,8.43311   c-0.43066,0.40186-0.34216,0.97266-0.02612,1.3501c-0.14392,0.48633-0.52209,17.74658-0.55933,20.99365   c-0.00781,0.68457,0.41748,1.29297,1.13745,1.36621c34.6687,3.52148,68.30457,2.51416,110.19287,2.91699   c2.55347,0.8501,5.39502,0.90967,8.0459,0.07666c33.69421,0.32568,70.80005,0.65186,104.66309-0.59863   c-6.63501,18.54248-15.1936,36.19092-23.95361,53.79932c-4.20898,8.46094-7.14575,19.02783-15.46802,24.49072   c-7.9021,5.1875-18.39136,4.61133-27.4458,5.01807c-31.20898,1.40283-62.5376,1.58008-93.51025-2.77686   c-4.77515-0.67139-9.53564-1.45557-14.27295-2.35645c-3.52404-0.67041-7.49951-0.87061-9.77295-4.07129   c-1.37744-1.93945-2.02197-5.4585-2.82446-7.65869c-8.11572-22.24854-16.14282-44.53125-24.1261-66.82764   c-0.62659-1.75-3.39343-0.90381-2.76355,0.84912c8.06104,22.43115,16.25,44.81348,24.53992,67.16064   c1.1571,3.11914,2.0166,7.91895,4.70276,10.22607c2.84424,2.44287,8.42553,2.54004,11.89819,3.15576   c11.32605,2.0083,22.76611,3.36523,34.23535,4.21826c22.10718,1.64404,44.31726,1.4209,66.45874,0.69775   c9.2124-0.30078,19.46118,0.36426,28.32007-2.56885c8.39063-2.77783,13.5675-9.33057,17.2782-17.06641   c0.05212-0.1084,29.51379-60.2666,29.44775-66.32324C249.35246,177.39828,252.86784,176.78549,252.79924,171.3851z    M242.00359,149.40317c4.41797,5.65234,3.96094,5.27393,5.44263,7.13818c-76.37878,2.14063-89.10535-0.58154-97.23291,0.62842   c2.42371-2.81348,4.75562-5.72217,7.05103-8.6626C222.2028,147.15756,240.60344,150.45395,242.00359,149.40317z    M114.05083,136.25717c6.47253-11.40575,13.11365-20.85058,19.53894-33.45556c1.9939-3.91162,3.9718-7.8252,6.21533-11.60205   c5.37476-9.05127,6.61914-6.01123,14.83765-2.2793c3.66028,1.66211,6.83923,3.56055,10.12976,5.84082   c4.31848,2.99316,9.57043,5.03076,13.47766,8.54297c3.82666,3.43994,2.85693,6.84863,0.53699,11.07373   c-5.7019,10.38428-14.87439,19.94579-22.29736,29.96239c-4.37122,5.89844-8.61035,11.88574-13.55994,17.30664   c-2.43372-2.62012-6.1134-4.35498-9.62097-4.28027c0.06445-0.1001,24.36975-29.55517,31.64246-42.88622   c0.33447,0.0415,0.67383-0.07813,0.85522-0.44092c3.23071-6.45996-1.50415-9.47266-6.54773-13.33203   c-3.45129-2.64063-6.4342-4.88135-10.73303-5.74023c-0.33228-0.06641-0.65491,0.13525-0.82849,0.41943   c-3.29846,0.7207-4.63049,5.97656-6.8053,9.74512c-15.76196,27.31982-18.05518,26.93505-22.57471,37.46532   c-2.53979-0.11914-5.07983-0.2207-7.62036-0.29395C111.97356,140.41147,112.90508,138.27621,114.05083,136.25717z    M120.72575,142.7103c3.28833-3.96045,15.99512-24.28075,24.42334-38.94823c1.46765-2.55371,2.27515-4.86865,5.27429-4.60986   c0.82678,0.63818,12.40637,8.61182,13.26575,9.19824c0.47327,0.72998,0.7793,1.53223,0.8313,2.4375   c-3.36133,3.75098-6.94043,12.33643-22.88452,33.3081C140.96989,143.25912,142.15312,143.77475,120.72575,142.7103z    M31.95,143.89487c0.08777,0.21143,0.25525,0.37988,0.52893,0.40088c21.86926,1.64404,43.70434,1.26172,65.60913,0.75439   c13.92261-0.32227,27.81958,1.77832,41.71045,1.43701c-2.26855,2.93896-4.57556,5.84912-6.91504,8.73438   c-0.64111-0.521,5.15076-0.2002-85.34473-2.57959c-8.81909-0.23193-18.48535-1.56494-27.28821-0.35059   c-0.03137-0.05273-0.06519-0.10156-0.10339-0.14697C21.73296,151.17416,30.54753,146.056,31.95,143.89487z M19.75444,172.60629   c0.2677-6.01855,0.43201-12.04346,0.62671-18.06494c8.73352,1.60352,15.97547,0.7373,31.99378,1.17627   c-3.5769,2.99707-6.65259,6.70264-9.84521,10.05176c-1.1189,1.17383,0.5282,3.12549,1.64185,1.93701   c3.58984-3.83105,7.6543-7.54492,10.60156-11.92188c31.74817,0.87842,51.9176,1.46777,75.73413,2.06982   c-0.17151,0.05908-0.34082,0.12549-0.50891,0.1958c-2.06873-1.16895-11.38806,3.59229-9.00598,12.09082   c0.57642,2.05615,1.66675,3.76904,3.0813,5.10449C51.92925,174.71567,40.05376,175.27475,19.75444,172.60629z M135.70012,174.73569   c-4.30054,1.44238-9.2334-0.01123-11.28906-4.27393c-2.07642-4.30566,0.53027-9.23682,5.17798-10.10889   c0.09705-0.01807,0.18677-0.04443,0.26929-0.07764c4.05933,0.39307,8.25684,0.49756,10.93359,4.12158   c0.03418,0.30078,0.22375,0.57129,0.48706,0.75635C143.29314,168.91928,140.25285,173.20883,135.70012,174.73569z    M235.2365,174.74643c-32.42578,1.23145-61.31396,0.84717-93.84399,0.62451c3.86096-3.08154,5.59351-7.51074,2.9541-11.85938   c1.40308-1.41992,2.77124-2.87646,4.10522-4.37012c4.28418,1.86035,19.46472,1.03418,24.14514,1.09131   c33.75,0.41309,74.7019-0.48877,76.52246-0.70996c0.14709,8.72168,1.03796,8.60059,0.73401,10.68066   C248.99455,176.0809,239.89763,174.56918,235.2365,174.74643z"/><path d="M130.94841,167.55649c-0.02771,0.83252,0.59204,1.76221,1.50977,1.76221c0.97705-0.32324,1.79761-0.41748,1.88513-1.52197   C134.66936,165.80112,131.02324,165.30795,130.94841,167.55649z"/><path d="M137.69841,157.51254c0.06421,0,0.0564-0.09961-0.00781-0.09961S137.6342,157.51254,137.69841,157.51254z"/><path d="M77.17741,200.48569c-1.23376-1.4751-3.72852,0.21826-2.48413,1.69727c6.85144,8.14355,13.63354,16.36328,20.4917,24.51758   c-6.52441,2.47803-12.95996,5.19385-19.25708,8.28223c-0.65588,0.32129-0.14111,1.3125,0.51965,1.00684   c6.48865-2.99951,13.13208-5.59082,19.8634-7.94824c7.75562,9.19971,15.62183,18.30371,23.823,27.09473   c0.55615,0.5957,1.57178-0.28857,1.08093-0.94141c-6.98059-9.28418-14.3092-18.30859-21.75427-27.23877   c9.21802-3.12207,18.5813-5.85693,27.92517-8.63477c4.5791,6.41016,8.93372,13.01123,13.60071,19.354   c-5.64355,2.19141-11.3739,4.20898-17.21594,6.01465c-1.27258,0.39355-0.72424,2.39063,0.55017,1.99658   c6.04456-1.86816,12.06726-3.9248,18.0293-6.17871c4.33105,5.75342,8.96887,11.25293,14.33472,16.14697   c0.33801,0.30811,0.90747-0.20752,0.5929-0.55762c-4.6344-5.15381-8.76245-10.72852-12.71985-16.43994   c9.3053-3.60547,18.4436-7.70947,27.26367-12.37354c2.90918,3.36133,5.93005,6.60156,9.11475,9.64258   c0.84546,0.80664,2.00537-0.21387,1.36255-1.17236c-2.32104-3.46191-4.77905-6.83936-7.30847-10.17188   c6.93225-3.80615,13.65442-7.96387,20.07971-12.51758c0.68896-0.48828,0.05322-1.58252-0.68896-1.13623   c-6.86951,4.13135-13.80151,8.07471-20.83228,11.78418c-4.03674-5.2373-8.22021-10.38135-12.34888-15.55322   c6.81396-2.66064,13.50366-5.64111,19.9939-9.13818c0.59473-0.32031,0.16309-1.23633-0.45776-0.9502   c-6.83191,3.14404-13.8103,5.88965-20.87061,8.41064c-2.3374-2.9458-4.64819-5.90625-6.8833-8.91064   c-1.20251-1.61621-3.69727,0.24854-2.50586,1.86865c1.99854,2.71826,3.99927,5.47119,6.01965,8.22705   c-9.18103,3.17822-18.4845,6.02148-27.77942,8.88281c-5.95386-8.10938-12.48608-15.71631-20.62244-21.95508   c-0.84949-0.65137-2.04211,0.76807-1.20691,1.46533c7.43835,6.21191,13.4801,13.59473,19.10596,21.32959   c-9.30591,2.87354-18.58875,5.80469-27.71436,9.15674C91.27238,217.16342,84.17693,208.85434,77.17741,200.48569z    M157.80876,208.45346c3.99512,5.42285,8.08911,10.82813,12.42883,15.979c-8.802,4.52881-17.76868,8.67773-26.97253,12.34717   c-4.39111-6.42285-8.61499-12.97803-13.13159-19.27783C139.45036,214.71762,148.72917,211.84213,157.80876,208.45346z"/><path d="M28.32537,91.38413c-0.69873,0.00391-1.0144,0.54199-0.97974,1.06934c-0.22925,0.47217-0.17847,1.05322,0.3811,1.54004   c14.823,12.896,26.99866,28.24365,40.52881,42.40624c0.77136,0.80762,2.03979,0.36084,2.69739-0.28613   c10.5636-10.39843,23.94385-21.55468,36.08301-32.57665c2.52063-2.28857,7.62903-5.37061,7.92883-9.00879   c0.04456-0.53955-0.52393-1.05518-1.04443-1.02588c-0.16333,0.00928-0.32532,0.0376-0.4873,0.06592   c-4.97241-1.97217-11.61694-1.3667-17.21484-1.26758c1.45581-19.52881,0.25659-39.74707-0.48047-65.59521   C95.56377,20.61265,96.7282,12.869,94.8206,7.00425c0.06323-0.58984-0.57312-1.0625-1.14294-0.7085   c-3.53198,2.19531-4.30273,3.43408-20.35889,23.46338c-6.09778-10.03906-15.67004-18.7666-27.07446-21.97656   c-1.58984-0.44727-2.39453,1.87354-0.82312,2.44336c11.8175,4.28564,18.54456,14.43408,27.67224,22.32861   c0.60889,0.52637,1.68188-0.27295,1.27612-1c-0.00269-0.00488-0.00562-0.00977-0.0083-0.01416   c0.09204-0.10156,16.86963-18.58301,18.13184-20.354c-0.50879,4.81836,2.71252,55.82568,1.12512,81.10986   C73.63896,91.80161,48.48308,91.26939,28.32537,91.38413z M108.90813,96.34116   c-19.26074,18.48584-26.32764,23.38037-39.35767,35.86376c-12.13598-13.10741-23.10998-27.7705-37.44824-38.56493   C50.72795,94.58091,108.50066,96.37241,108.90813,96.34116z"/><path d="M43.85222,9.75474c-1.50842,26.72119-1.30615,53.51465-0.09009,80.24463c0.06982,1.53467,2.44019,1.2417,2.36646-0.2832   c-1.28833-26.60449-1.55969-53.30762-1.4248-79.94141C44.70623,9.29478,43.87957,9.27134,43.85222,9.75474z"/><path d="M50.61614,163.04868c0.06433,0,0.0564-0.09961-0.00769-0.09961C50.54412,162.94907,50.55193,163.04868,50.61614,163.04868z   "/><path d="M90.19487,157.79819c-3.05676,2.78613-5.45471,6.27783-7.73022,9.70654c-0.73218,1.10303,1.10168,2.13281,1.81335,1   c2.1394-3.40576,4.64233-6.56982,6.77173-9.97754C91.38664,157.98813,90.67876,157.35678,90.19487,157.79819z"/><path d="M191.06975,160.88608c-3.5426,2.6084-6.8103,5.51172-10.09839,8.42773c-0.92017,0.81641,0.39282,2.229,1.30762,1.39844   c3.26343-2.96045,6.5188-5.89941,9.49194-9.15771C192.15935,161.12875,191.4959,160.5726,191.06975,160.88608z"/><path d="M233.53557,162.94272c-2.49854,1.21436-4.66309,2.82178-6.58374,4.81982c-1.18677,1.23438,0.65796,3.2124,1.79993,1.95361   c1.79456-1.97852,3.67761-3.87891,5.56897-5.76416C234.8604,163.41391,234.1718,162.63364,233.53557,162.94272z"/><path d="M169.46672,116.37193c1.66492-1.86621,2.95898-3.81787,3.24634-6.35596c0.547-4.83545-2.33252-4.59912-1.94775-3.69531   c1.16333,2.7373-0.10791,7.40039-1.62524,9.77734C169.01299,116.29722,169.29997,116.55845,169.46672,116.37193z"/></g></svg>